<svg width="610" height="338" viewBox="0 0 610 338" fill="none" xmlns="http://www.w3.org/2000/svg">
<g opacity="0.05" filter="url(#filter0_d)">
<path fill-rule="evenodd" clip-rule="evenodd" d="M9.70906 24.9052C14.4561 18.4526 21.5767 15.0564 31.0708 14.3772C48.3636 13.0188 58.1967 21.1695 60.5702 38.8292C71.0815 109.808 82.6101 169.919 94.8168 219.162L169.074 77.5447C175.856 64.6395 184.332 57.8473 194.505 57.1681C209.424 56.1493 218.579 65.6583 222.309 85.6953C230.786 130.863 241.636 169.239 254.521 201.842C263.337 115.581 278.256 53.4324 299.279 15.0565C304.365 5.54741 311.824 0.792893 321.658 0.113674C329.456 -0.565546 336.577 1.81172 343.019 6.90587C349.462 12 352.852 18.4525 353.531 26.2636C353.87 32.3765 352.852 37.4708 350.14 42.5649C336.916 67.0168 326.065 108.11 317.25 165.164C308.773 220.521 305.721 263.651 307.755 294.555C308.434 303.046 307.077 310.517 303.687 316.97C299.618 324.441 293.514 328.516 285.716 329.196C276.9 329.875 267.745 325.799 258.929 316.63C227.395 284.367 202.303 236.143 183.993 171.956C161.954 215.426 145.678 248.029 135.167 269.764C115.161 308.14 98.2075 327.837 83.9664 328.856C74.8114 329.535 67.0127 321.724 60.2312 305.423C42.9384 260.934 24.2893 175.013 4.2839 47.6591C3.26668 38.8292 4.96202 31.0181 9.70906 24.9052ZM737.712 78.1331C725.496 56.6782 707.51 43.737 683.417 38.6287C676.97 37.2665 670.861 36.5854 665.092 36.5854C632.516 36.5854 606.047 53.6131 585.347 87.6686C567.701 116.616 558.878 148.628 558.878 183.705C558.878 209.928 564.308 232.405 575.167 251.135C587.383 272.59 605.368 285.531 629.461 290.64C635.909 292.002 642.017 292.683 647.786 292.683C680.702 292.683 707.171 275.655 727.532 241.6C745.177 212.312 754 180.3 754 145.222C754 118.659 748.571 96.5231 737.712 78.1331ZM694.955 172.467C690.204 194.944 681.72 211.631 669.165 222.869C659.324 231.724 650.161 235.47 641.678 233.767C633.534 232.064 626.747 224.912 621.657 211.631C617.585 201.074 615.549 190.516 615.549 180.64C615.549 172.126 616.227 163.612 617.924 155.78C620.978 141.817 626.747 128.195 635.909 115.254C647.107 98.5664 658.984 91.7553 671.201 94.1392C679.345 95.8419 686.132 102.994 691.222 116.275C695.294 126.832 697.33 137.39 697.33 147.266C697.33 156.12 696.312 164.634 694.955 172.467ZM472.035 38.6287C495.789 43.737 514.113 56.6782 526.33 78.1331C537.189 96.5231 542.618 118.659 542.618 145.222C542.618 180.3 533.795 212.312 516.149 241.6C495.789 275.655 469.32 292.683 436.404 292.683C430.635 292.683 424.527 292.002 418.079 290.64C393.986 285.531 376.001 272.59 363.785 251.135C352.926 232.405 347.496 209.928 347.496 183.705C347.496 148.628 356.319 116.616 373.965 87.6686C394.665 53.6131 421.133 36.5854 453.71 36.5854C459.479 36.5854 465.587 37.2665 472.035 38.6287ZM457.782 222.869C470.338 211.631 478.822 194.944 483.572 172.467C485.269 164.634 485.948 156.12 485.948 147.266C485.948 137.39 483.912 126.832 479.84 116.275C474.75 102.994 467.963 95.8419 459.819 94.1392C447.602 91.7553 435.725 98.5664 424.527 115.254C415.365 128.195 409.596 141.817 406.542 155.78C404.845 163.612 404.166 172.126 404.166 180.64C404.166 190.516 406.202 201.074 410.274 211.631C415.365 224.912 422.152 232.064 430.296 233.767C438.779 235.47 447.941 231.724 457.782 222.869Z" fill="white"/>
</g>
<defs>
<filter id="filter0_d" x="0" y="0" width="758" height="337.268" filterUnits="userSpaceOnUse" color-interpolation-filters="sRGB">
<feFlood flood-opacity="0" result="BackgroundImageFix"/>
<feColorMatrix in="SourceAlpha" type="matrix" values="0 0 0 0 0 0 0 0 0 0 0 0 0 0 0 0 0 0 127 0"/>
<feOffset dy="4"/>
<feGaussianBlur stdDeviation="2"/>
<feColorMatrix type="matrix" values="0 0 0 0 0 0 0 0 0 0 0 0 0 0 0 0 0 0 0.25 0"/>
<feBlend mode="normal" in2="BackgroundImageFix" result="effect1_dropShadow"/>
<feBlend mode="normal" in="SourceGraphic" in2="effect1_dropShadow" result="shape"/>
</filter>
</defs>
</svg>
