<svg width="962" height="1057" viewBox="0 0 962 1057" fill="none" xmlns="http://www.w3.org/2000/svg">
<path opacity="0.6" d="M28.8561 -482.987C52.8498 -515.635 88.8403 -532.819 136.828 -536.255C224.233 -543.129 273.934 -501.889 285.931 -412.536C339.06 -53.4058 397.33 250.738 459.028 499.895L834.357 -216.647C868.634 -281.943 911.48 -316.31 962.895 -319.746C1038.3 -324.901 1084.58 -276.788 1103.43 -175.407C1146.27 53.1301 1201.12 247.301 1266.24 412.26C1310.8 -24.1943 1386.21 -338.648 1492.47 -532.819C1518.18 -580.932 1555.88 -604.988 1605.58 -608.425C1645 -611.861 1680.99 -599.833 1713.55 -574.058C1746.12 -548.283 1763.25 -515.636 1766.68 -476.114C1768.4 -445.184 1763.25 -419.409 1749.54 -393.634C1682.7 -269.915 1627.86 -61.9973 1583.3 226.681C1540.46 506.768 1525.03 724.995 1535.31 881.363C1538.74 924.321 1531.89 962.124 1514.75 994.773C1494.18 1032.58 1463.33 1053.2 1423.92 1056.63C1379.36 1060.07 1333.08 1039.45 1288.52 993.054C1129.14 829.813 1002.31 585.811 909.766 261.048C798.367 480.994 716.103 645.953 662.974 755.925C561.858 950.096 476.166 1049.76 404.186 1054.91C357.912 1058.35 318.494 1018.83 284.217 936.35C196.812 711.249 102.551 276.513 1.43496 -367.859C-3.70654 -412.536 4.86246 -452.057 28.8561 -482.987Z" fill="white"/>
</svg>
